<?xml version="1.0" encoding="UTF-8"?>
<svg id="Layer_1" data-name="Layer 1" xmlns="http://www.w3.org/2000/svg" version="1.1" viewBox="0 0 1024 1024">
  <defs>
    <style>
      .cls-1 {
        fill: #fff;
        stroke-width: 0px;
      }
    </style>
  </defs>
  <path class="cls-1" d="M820.2,251.7c4.6,4.5,7.2,11.7,6.3,17.2-1.7,9.9-19.8,17.6-19.8,17.6h-4.9l-11.9,23.9c-8.7,17.7-12.8,24.8-15.1,26.8-3.7,3-26.9,18-64.5,41.5l-25.1,15.8-6,12.5-5.9,12.5-35.4,22.1-35.4,22.1v16.7c-.3,9.1,0,16.6.4,16.6s8.7-5,18.2-11.1c9.6-6.2,20-12.8,23.2-14.8,5.4-3.3,6.2-4.4,11.6-14.6,4.7-9,6.5-11.5,10.2-14,10-6.8,45.3-28.5,46.3-28.5s3,4.1,5.3,9l4.2,9-4.2,2.8c-2.3,1.6-12.1,7.7-21.8,13.6-19.3,11.7-17.6,9.9-25.2,26.7-1.9,4.3-4.3,7.9-5.3,8.3-1.1.4-10.4,6-20.9,12.5-10.4,6.5-25.2,15.6-32.7,20.2l-13.7,8.4-7.9,16.5c-4.4,9.1-9.4,19.9-11.1,24.1-3,7.2-3.6,7.9-9.9,12.1-3.7,2.5-8.2,5.3-10,6.2l-3.7,1.7v63.4l-6.6,5c-3.6,2.7-8.4,6.3-10.6,7.8l-3.8,2.9v-89.2l12.1-7.8,11.7-7.8,5.2-12c2.9-6.6,8-17.8,11.4-24.9l6.6-12.8v-56.5l14.8-10c15.7-10.4,37.3-24.1,51.2-32.5l8-4.8,6.5-12.7,6.5-12.8,11.1-7c26.6-16.7,71.3-45.2,75.4-48,4.2-2.8,5.5-4.9,17.2-28,11.3-22.3,12.6-25.6,12.6-30.1.1-9.3,6.8-19,14.9-21.4,7.4-2.2,14.4-.3,20.5,5.7ZM808.9,271.6c2.7-2.5,2.7-6.1-.1-8-2.7-1.9-3.9-2-6.2-.3-2.6,1.9-1.8,6.8,1.6,8.6,2.4,1.4,2.8,1.4,4.7-.3Z"/>
  <path class="cls-1" d="M765,267.3c0,11.4-7.2,18.8-20,20.4-2.1.3-3.4,2.2-8.5,12.5l-6,12.2-16.8.3-16.9.3-5.2,11.5c-4.9,11-5.3,11.5-8.8,12.4s-3.8,1.4-8.6,12.5c-4.8,11.4-5,11.6-11,15.6-3.4,2.2-8.8,5.5-12.1,7.4-4.1,2.3-6.1,4.1-6.6,5.9-.3,1.4-1.6,3.4-2.8,4.4-7.1,6.2-18.4,1.3-19.4-8.4-.5-5.3,1.1-8.5,5.7-11.6,4-2.7,8.3-2.5,12.8.6l2.7,2,3.2-2.7c2.4-2,3-3,2.2-3.8-1.6-1.6,13.8-34.2,16.7-35.3,1.3-.5,4.2-5.6,8.9-15.9l6.9-15.1h16.6c19,0,17.4.7,23.2-10,2.5-4.6,3.3-7.1,2.7-8.5-1.3-3.3-1-12.4.5-16,1.9-4.4,5.9-8.2,11.1-10.6,13.8-6.4,29.4,4.2,29.5,19.9ZM743.5,273c5,0,7.3-6,3.7-9.3-2.3-2.1-3.2-2.1-6,0-3.8,2.6-2.2,9.4,2.3,9.4Z"/>
  <path class="cls-1" d="M750.2,400.7c5.4,5.7,6.2,12.3,2.3,19-5.7,9.6-18.8,11.2-26.1,3.1-3.4-3.7-4.5-6.5-4.6-11.7,0-7.8,3.7-13.1,10.7-15.5,6.1-2.1,12.7-.2,17.7,5.1Z"/>
  <path class="cls-1" d="M714.3,467c5.6,4.4,5.3,13.6-.5,18.5-2.7,2.3-3.9,2.6-7.6,2.2-10.8-1.2-14.8-14.1-6.4-20.7,3.4-2.7,11-2.7,14.5,0Z"/>
  <path class="cls-1" d="M700.5,259.5v11h-39.6l-8.4,17.2c-4.6,9.5-19.1,39.3-32.3,66.3-13.2,26.9-24.7,50.8-25.7,53s-11.2,23.8-22.8,48l-21,44.1,1.4,5.4c.8,3,1.4,7,1.4,8.9,0,16.8-18.7,29-34,22-11.9-5.4-16.9-16.5-13.4-29.9l1.8-6.9-5.1-10.8c-2.8-5.9-9.2-19.1-14.1-29.3s-16-33.1-24.5-51-23.1-47.8-32.4-66.5c-9.4-18.7-20.9-42.2-25.8-52.3l-8.9-18.2h-18.2c-10,0-18.9-.3-19.8-.6-1.3-.5-1.6-2.5-1.6-11v-10.4h53.5l10,20.7c9.5,19.9,22.7,47.1,46.7,96.3,10.5,21.4,17.9,36.9,42,87.5,5.8,12.1,12.4,25.9,14.7,30.7,3.7,7.7,6.1,10.8,6.1,7.9s2.7-6.7,6.1-13.7c16.9-35.7,47.2-98.8,62.9-130.9,17.4-35.6,41.5-85.7,44.5-92.4l2.8-6.1h53.7v11ZM533,514c2.6-2.6,2.5-6,0-8.8-2.8-3-6.4-2.8-8.9.4-2.7,3.4-2.6,5,.4,7.9,2.9,3,5.8,3.2,8.5.5Z"/>
  <path class="cls-1" d="M700,517.1c0,5.1-.7,7-5.5,16.1-3,5.7-11.6,22.3-19.1,37-15.5,30.4-18,33.8-25.9,33.8s-8.5-1.3-11.4-5.6c-1.9-2.7-2.2-4.3-1.8-7.5.6-4.7,2.9-7.6,7.4-9.5,2.7-1.2,4.7-4.5,16.3-27l13.2-25.6-2.6-5.2c-3.1-6-3.2-8.7-.7-14.1,2.1-4.6,4.4-6.8,8.6-8.3,4.7-1.6,7.7-1.4,12.5,1,6.3,3.2,9,7.7,9,14.9Z"/>
  <path class="cls-1" d="M653,525.4c1.1.3,9.5,15.5,9.5,17.2s-30.2,21.4-35.1,23.8c-1.8.9-1.9,2.8-1.9,38.3v37l4.7,3.4c2.7,1.7,5.4,3.8,6.2,4.3,1.2.9.8,2.2-2.5,8.3-7,13-5.2,12.6-18.7,3.6l-11.8-7.8v-10.9l1-48.6v-37.6l16.8-10.8c9.2-5.9,19.9-12.9,23.7-15.6,3.9-2.6,7.4-4.7,8-4.5Z"/>
  <path class="cls-1" d="M621.4,392.5c11.1,5.3,7,21.5-5.5,21.5s-9.9-5.6-9.9-10.9,1.7-8.7,5.4-10.5c3.9-2,6-2,10-.1Z"/>
  <path class="cls-1" d="M612.5,698.3c0,.4-2.4,5.3-5.4,10.9l-5.4,10.1-7.8-.2c-7.7-.2-7.8-.3-16.7-6.3-4.8-3.4-9.9-7.7-11.3-9.7-2.3-3.5-2.4-4-2.4-23.6v-20l8.9-6.4c5-3.4,9.5-6.9,10.2-7.7,3-3.6,3.4-1.5,3.1,14.7l-.3,16,3.1,2.9c1.6,1.5,3,3.2,3,3.8s4.7,4,10.5,7.8c5.8,3.8,10.5,7.2,10.5,7.7ZM583.5,691.6c2.8-.7,4.4-4.9,2.8-7.4-1.8-2.9-5.1-3.3-7.9-.9-2.2,1.9-2.4,2.6-1.5,5s3.1,4.2,6.6,3.3Z"/>
  <path class="cls-1" d="M590.2,596.6c6.7,5,9.6,16.2,5.9,23.2-.9,1.8-4.2,4.9-7.4,7-3.1,2-5.9,3.9-6.2,4.2s-4.7,3.3-9.7,6.8l-9.3,6.3v-19.8c0-19.3.1-19.9,2.4-23.4,1.4-2,3.9-4.3,5.8-5.3,4.6-2.3,14.8-1.8,18.5,1ZM585,615.5c0-1.3-1-3.1-2.2-3.9-1.2-.9-2.5-1.6-2.8-1.6-1.8,0-5,3.5-5,5.5s3.2,5.5,5.7,5.5,4.3-3,4.3-5.5Z"/>
  <path class="cls-1" d="M585,746.9c0,4.8-4.4,10.6-8.8,11.4-5.6,1.1-12.3-4-13.7-10.3-.9-4.1,2.1-9.9,5.9-11.6,8.5-3.7,16.6,1.5,16.6,10.5Z"/>
  <path class="cls-1" d="M555.5,737.2c.2,80.5.3,79.3-5.8,87.7-3.3,4.6-8.4,8.2-14.5,10.2-4.8,1.5-14.2.8-18.6-1.4-5-2.6-10.6-8.8-13.5-15l-2.6-5.6v-85.8l6-4.4c3.2-2.4,8.1-6.2,10.8-8.4l4.9-4,.3,44.1c.2,33.4,0,44.4-.8,46.5-1.3,2.9-1.6,8.6-.7,11.3.9,2.5,5.8,4.8,8.7,4,5.8-1.5,9.3-9.1,6.3-13.7-1.3-2-1.5-8.9-1.5-62.5v-60.1l10.4-7.9,10.3-7.9.3,72.8Z"/>
  <path class="cls-1" d="M522.5,636.4v59.8l-8.5,6.1c-4.7,3.4-9.1,7-9.8,7.8-.8.9-1.7,1.6-2.2,1.6s-1-28.8-1.1-64.6l-.3-61.8-9.4-5.7-9.4-5.6-5.4-12.4c-9.4-21.4-17.5-36.1-21.5-38.9-2-1.4-17.2-10.7-33.8-20.7s-30.9-19-31.8-19.7c-.9-.8-3.9-6.3-6.9-12.3l-5.3-11-8.7-5.3c-4.7-2.9-11.6-7.2-15.2-9.6-3.6-2.3-9.5-5.9-13.1-8.1-3.6-2.1-6.7-4-6.9-4.2-.6-.4,8.4-19.4,9.2-19.4s5.8,3.3,12.1,7.3c6.2,4.1,17.6,11.2,25.3,15.9l13.8,8.4,4.4,8.6c7.4,14.5,7.2,14.2,19.4,21.6,6.3,3.9,17.3,10.8,24.6,15.3l13,8.2-.2-18.3-.3-16.9-12.6-8c-18.9-11.9-31.6-19.7-45.6-28.1-11-6.6-12.8-8-14.2-11.5-.9-2.2-3.5-7.7-5.6-12.4l-4-8.4-17.5-11c-9.6-6-24.2-15.2-32.4-20.2-8.1-5.1-21.1-13.2-28.7-18.1l-13.9-8.8-5.9-12.6c-3.3-6.8-8.7-17.8-12.1-24.4l-6.1-11.9-5.4-.2c-8.1-.2-14-4.2-17.9-11.9-4.6-9.1.8-22.6,10.8-27.1,13.3-6.1,29.4,4.5,29.4,19.4s2.1,8.7,12.6,29.9l12.7,25.6,18.7,12c10.3,6.5,26.6,16.8,36.4,22.8,27.5,16.8,38.3,24,38.3,25.3s2.3,5.9,5.1,11.7l5,10.5,9.1,5.6c22.7,13.9,59.4,36.8,62.1,38.7l3,2.2v56.8l4.8,9.6c2.6,5.3,8.1,16.9,12.2,25.8,4.3,9.4,8.3,16.9,9.7,18,1.3,1,6.4,4.3,11.4,7.3l8.9,5.4v62ZM249.6,273c4.9,0,7.2-6.1,3.6-9.3-2.3-2.1-3.2-2.1-6,0-2.4,1.7-3,6.2-1,8.2s2.2,1.2,3.4,1.2Z"/>
  <path class="cls-1" d="M494,607.6c.8,4.3.3,88.4-.6,92.5-.5,2.7-5.9,8.2-14.3,14.6l-6.4,4.8h-17.2l-5.5-10.5c-3.4-6.6-5.1-10.8-4.5-11.3s5.1-3.7,10-7.2c5-3.5,10-7.6,11.3-9.2,1.3-1.5,3-2.8,3.8-2.8s1.4-1.3,1.4-4.8.3-13.3.7-23.8l.6-19.2-4-2.5c-5.2-3.3-8-6.9-9.4-12-2.6-9.6,2.8-18.6,12.9-21.7,1.5-.5,4.5-.6,6.7-.3,7.9,1,13.1,5.8,14.5,13.4ZM479.9,619.6c2.5-2.3,2.7-5.8.5-8-2-2.1-4.8-2-6.9,0-2.3,2.4-1.5,6.6,1.7,8.3,2.4,1.4,2.8,1.4,4.7-.3ZM477.5,692.2c3.2-1.5,4-4.7,2.1-7.7-2-3-5.6-3.2-8.1-.5-3.6,4,1.1,10.4,6,8.2Z"/>
  <path class="cls-1" d="M488.6,736.5c6.9,2.9,8.2,12.9,2.4,18.7s-3.7,2.8-7.5,2.8-5.2-.5-8.1-3.4-3.4-4.2-3.4-7c0-4.8,2.3-9.2,5.8-11,3.5-1.9,6.4-2,10.8-.1Z"/>
  <path class="cls-1" d="M453.2,605.3l.3,47.3-4.1,3c-7.9,5.9-20.1,14-20.4,13.6-.6-.9-9.8-18.3-9.8-18.7s2.8-2.1,6.1-4.3l6.1-3.8v-74.8l-16.8-10.6c-9.3-5.8-17.7-11.3-18.8-12.2-1.8-1.6-1.8-1.9,2.6-11l4.5-9.5,10,6.3c5.5,3.4,15.8,9.8,22.8,14.2,7.1,4.4,13.9,8.9,15.1,9.8,2.1,1.8,2.1,2.4,2.3,50.8Z"/>
  <path class="cls-1" d="M444.9,392.4c3.9,2.1,6.1,5.8,6.1,10.7s-5.1,10.9-9.9,10.9c-12.3,0-16.3-15.8-5.5-21.5s5.7-1.9,9.3,0Z"/>
  <path class="cls-1" d="M431,364c5.8,5.9,4.4,16.4-2.5,20-6.2,3.1-15.5,0-16.7-5.7-.3-1.8-1.7-3.7-3.7-4.9-1.7-1-6.8-4.1-11.1-7l-8-5-6.2-12.4c-5.1-10.5-6.6-12.6-8.7-12.8-2.1-.3-3.4-2.3-8.3-12.4l-5.8-12-17-.2-17-.3-6.8-12.6c-6.5-12.1-6.8-12.6-9.7-12.3-3.5.4-9.8-2-13.2-5.1-6-5.6-8-17.4-4.1-24.9,2.5-5.1,5.4-7.8,10.6-10.2,7.2-3.3,15.6-2.1,22,3.2,6,4.9,7.9,9.7,7.7,18.9-.1,7.2,0,8.4,3.7,15.5l3.8,7.9h35.8l1.8,3.7c1,2.1,4.2,9.1,7.2,15.5,3,6.7,6.2,12,7.3,12.4,1.1.5,4.6,6.8,8.5,14.6,7.6,16.2,9,19.6,8.6,21.4-.2.7.9,2,2.4,2.9,2.4,1.4,3.1,1.4,4.9.3,1.2-.8,4.2-1.4,6.8-1.4,3.7,0,5.1.6,7.6,3ZM308.6,271.4c4,4.1,10.9-.7,8.6-5.9-.9-2-1.9-2.5-4.6-2.5-5.1,0-7.5,5-4,8.4Z"/>
  <path class="cls-1" d="M420.5,590c.8,3.7-1.9,9.5-5.6,12.3-5.2,3.8-14.7,1.7-18.7-4-1.7-2.6-10.6-19.3-24.2-45.8-3.1-6.1-8.2-15.8-11.3-21.7-4-7.5-5.7-11.9-5.7-14.5,0-5.6,3.5-11.9,8.3-14.8,8.2-4.9,17.9-2.1,22.5,6.5,2.8,5.3,2.6,11.6-.6,15.9-1.9,2.6-1.9,2.9-.3,7.2,1,2.5,6.1,12.3,11.3,21.9,5.3,9.6,10.7,19.7,11.9,22.3,1.5,3.1,3.1,5,4.6,5.3,3,.8,7,5.5,7.8,9.4Z"/>
  <path class="cls-1" d="M357,467.5c2.6,2.4,4.3,7.9,3.5,11.5-1.1,4.9-5.9,9-10.6,9s-9.4-2.3-11.4-7.4c-2.7-7.1.3-13.6,7.1-15.5,3.6-1,8.9.2,11.4,2.4Z"/>
  <path class="cls-1" d="M333,412.2c0,5.9-1.7,9.4-6.4,13.6-8.1,7.1-19.1,4.4-24.4-5.8-4.2-8.1-.8-18.4,7.2-22.1,5.4-2.5,9.2-2.4,14.6.3,6,3.1,9,7.7,9,14Z"/>
</svg>